<mxfile host="65bd71144e">
    <diagram id="czp62jnkOXEEkNFAKGTL" name="Page-1">
        <mxGraphModel dx="1180" dy="2670" grid="1" gridSize="10" guides="1" tooltips="1" connect="1" arrows="1" fold="1" page="1" pageScale="1" pageWidth="850" pageHeight="1100" math="0" shadow="0">
            <root>
                <mxCell id="0"/>
                <mxCell id="1" parent="0"/>
                <mxCell id="2" value="&lt;h1&gt;memeify&lt;/h1&gt;&lt;p&gt;A place where people can enjoy their love of memes, and interact with other meme-enjoyers online in real time.&lt;/p&gt;" style="text;html=1;strokeColor=none;fillColor=none;spacing=5;spacingTop=-20;whiteSpace=wrap;overflow=hidden;rounded=0;" vertex="1" parent="1">
                    <mxGeometry x="20" y="-1080" width="190" height="120" as="geometry"/>
                </mxCell>
                <mxCell id="3" value="Memes" style="swimlane;" vertex="1" parent="1">
                    <mxGeometry x="320" y="-1080" width="190" height="200" as="geometry"/>
                </mxCell>
                <mxCell id="154" value="comments: { ref &quot;Comments&quot; }" style="text;html=1;align=center;verticalAlign=middle;resizable=0;points=[];autosize=1;strokeColor=none;" vertex="1" parent="3">
                    <mxGeometry x="5" y="40" width="180" height="20" as="geometry"/>
                </mxCell>
                <mxCell id="155" value="author: { ref: &quot;User&quot; }" style="text;html=1;align=center;verticalAlign=middle;resizable=0;points=[];autosize=1;strokeColor=none;" vertex="1" parent="3">
                    <mxGeometry x="30" y="60" width="130" height="20" as="geometry"/>
                </mxCell>
                <mxCell id="156" value="date: date" style="text;html=1;align=center;verticalAlign=middle;resizable=0;points=[];autosize=1;strokeColor=none;" vertex="1" parent="3">
                    <mxGeometry x="60" y="80" width="70" height="20" as="geometry"/>
                </mxCell>
                <mxCell id="157" value="objectID: MongoID" style="text;html=1;align=center;verticalAlign=middle;resizable=0;points=[];autosize=1;strokeColor=none;" vertex="1" parent="3">
                    <mxGeometry x="40" y="100" width="110" height="20" as="geometry"/>
                </mxCell>
                <mxCell id="8" value="Users" style="swimlane;" vertex="1" parent="1">
                    <mxGeometry x="570" y="-910" width="200" height="210" as="geometry"/>
                </mxCell>
                <mxCell id="145" value="firstName: String" style="text;html=1;align=center;verticalAlign=middle;resizable=0;points=[];autosize=1;strokeColor=none;" vertex="1" parent="8">
                    <mxGeometry x="50" y="50" width="100" height="20" as="geometry"/>
                </mxCell>
                <mxCell id="148" value="lastName: String" style="text;html=1;align=center;verticalAlign=middle;resizable=0;points=[];autosize=1;strokeColor=none;" vertex="1" parent="8">
                    <mxGeometry x="50" y="70" width="100" height="20" as="geometry"/>
                </mxCell>
                <mxCell id="149" value="email: String" style="text;html=1;align=center;verticalAlign=middle;resizable=0;points=[];autosize=1;strokeColor=none;" vertex="1" parent="8">
                    <mxGeometry x="60" y="95" width="80" height="20" as="geometry"/>
                </mxCell>
                <mxCell id="150" value="password: String" style="text;html=1;align=center;verticalAlign=middle;resizable=0;points=[];autosize=1;strokeColor=none;" vertex="1" parent="8">
                    <mxGeometry x="50" y="115" width="100" height="20" as="geometry"/>
                </mxCell>
                <mxCell id="151" value="posts: { ref: &quot;Posts&quot; }" style="text;html=1;align=center;verticalAlign=middle;resizable=0;points=[];autosize=1;strokeColor=none;" vertex="1" parent="8">
                    <mxGeometry x="40" y="140" width="120" height="20" as="geometry"/>
                </mxCell>
                <mxCell id="9" value="Posts" style="swimlane;startSize=23;" vertex="1" parent="1">
                    <mxGeometry x="60" y="-790" width="200" height="200" as="geometry"/>
                </mxCell>
                <mxCell id="139" value="author: { ref: &quot;User&quot; }" style="text;html=1;align=center;verticalAlign=middle;resizable=0;points=[];autosize=1;strokeColor=none;" vertex="1" parent="9">
                    <mxGeometry x="35" y="70" width="130" height="20" as="geometry"/>
                </mxCell>
                <mxCell id="140" value="date: date" style="text;html=1;align=center;verticalAlign=middle;resizable=0;points=[];autosize=1;strokeColor=none;" vertex="1" parent="9">
                    <mxGeometry x="65" y="90" width="70" height="20" as="geometry"/>
                </mxCell>
                <mxCell id="143" value="comments: { ref &quot;Comments&quot; }" style="text;html=1;align=center;verticalAlign=middle;resizable=0;points=[];autosize=1;strokeColor=none;" vertex="1" parent="9">
                    <mxGeometry x="10" y="110" width="180" height="20" as="geometry"/>
                </mxCell>
                <mxCell id="144" value="post ID: objectID" style="text;html=1;align=center;verticalAlign=middle;resizable=0;points=[];autosize=1;strokeColor=none;" vertex="1" parent="9">
                    <mxGeometry x="50" y="130" width="100" height="20" as="geometry"/>
                </mxCell>
                <mxCell id="10" value="Comments" style="swimlane;" vertex="1" parent="1">
                    <mxGeometry x="380" y="-630" width="200" height="180" as="geometry"/>
                </mxCell>
                <mxCell id="134" value="&lt;span style=&quot;color: rgba(0 , 0 , 0 , 0) ; font-family: monospace ; font-size: 0px&quot;&gt;%3CmxGraphModel%3E%3Croot%3E%3CmxCell%20id%3D%220%22%2F%3E%3CmxCell%20id%3D%221%22%20parent%3D%220%22%2F%3E%3CmxCell%20id%3D%222%22%20value%3D%22caption%3A%20String%2C%22%20style%3D%22text%3Bhtml%3D1%3Balign%3Dcenter%3BverticalAlign%3Dmiddle%3Bresizable%3D0%3Bpoints%3D%5B%5D%3Bautosize%3D1%3BstrokeColor%3Dnone%3B%22%20vertex%3D%221%22%20parent%3D%221%22%3E%3CmxGeometry%20x%3D%22430%22%20y%3D%22540%22%20width%3D%22100%22%20height%3D%2220%22%20as%3D%22geometry%22%2F%3E%3C%2FmxCell%3E%3C%2Froot%3E%3C%2FmxGraphModel%3Ed&lt;/span&gt;" style="text;html=1;align=center;verticalAlign=middle;resizable=0;points=[];autosize=1;strokeColor=none;" vertex="1" parent="10">
                    <mxGeometry x="90" y="90" width="20" height="20" as="geometry"/>
                </mxCell>
                <mxCell id="142" value="date: date" style="text;html=1;align=center;verticalAlign=middle;resizable=0;points=[];autosize=1;strokeColor=none;" vertex="1" parent="10">
                    <mxGeometry x="60" y="90" width="70" height="20" as="geometry"/>
                </mxCell>
                <mxCell id="17" value="" style="edgeStyle=entityRelationEdgeStyle;fontSize=12;html=1;endArrow=ERoneToMany;" edge="1" parent="1">
                    <mxGeometry width="100" height="100" relative="1" as="geometry">
                        <mxPoint x="260" y="-730" as="sourcePoint"/>
                        <mxPoint x="320" y="-970" as="targetPoint"/>
                    </mxGeometry>
                </mxCell>
                <mxCell id="18" value="" style="edgeStyle=entityRelationEdgeStyle;fontSize=12;html=1;endArrow=ERoneToMany;" edge="1" parent="1">
                    <mxGeometry width="100" height="100" relative="1" as="geometry">
                        <mxPoint x="260" y="-630" as="sourcePoint"/>
                        <mxPoint x="380" y="-510" as="targetPoint"/>
                    </mxGeometry>
                </mxCell>
                <mxCell id="31" value="" style="edgeStyle=entityRelationEdgeStyle;fontSize=12;html=1;endArrow=ERmany;entryX=1;entryY=0.5;entryDx=0;entryDy=0;exitX=0;exitY=0.75;exitDx=0;exitDy=0;" edge="1" parent="1" source="8" target="9">
                    <mxGeometry width="100" height="100" relative="1" as="geometry">
                        <mxPoint x="470" y="-800" as="sourcePoint"/>
                        <mxPoint x="370" y="-700" as="targetPoint"/>
                    </mxGeometry>
                </mxCell>
                <mxCell id="39" value="" style="edgeStyle=entityRelationEdgeStyle;fontSize=12;html=1;endArrow=ERoneToMany;entryX=1;entryY=0.75;entryDx=0;entryDy=0;" edge="1" parent="1" target="10">
                    <mxGeometry width="100" height="100" relative="1" as="geometry">
                        <mxPoint x="770" y="-780" as="sourcePoint"/>
                        <mxPoint x="610" y="-550" as="targetPoint"/>
                    </mxGeometry>
                </mxCell>
                <mxCell id="40" value="" style="edgeStyle=entityRelationEdgeStyle;fontSize=12;html=1;endArrow=ERoneToMany;" edge="1" parent="1">
                    <mxGeometry width="100" height="100" relative="1" as="geometry">
                        <mxPoint x="510" y="-970" as="sourcePoint"/>
                        <mxPoint x="570" y="-810" as="targetPoint"/>
                    </mxGeometry>
                </mxCell>
                <mxCell id="52" value="" style="edgeStyle=entityRelationEdgeStyle;fontSize=12;html=1;endArrow=ERoneToMany;exitX=0;exitY=1;exitDx=0;exitDy=0;" edge="1" parent="1" source="3">
                    <mxGeometry width="100" height="100" relative="1" as="geometry">
                        <mxPoint x="390" y="-880" as="sourcePoint"/>
                        <mxPoint x="380" y="-590" as="targetPoint"/>
                    </mxGeometry>
                </mxCell>
                <mxCell id="80" value="AS A USER, I WANT TO BE ABLE TO..." style="swimlane;startSize=30;" vertex="1" parent="1">
                    <mxGeometry x="40" y="-400" width="360" height="320" as="geometry"/>
                </mxCell>
                <mxCell id="83" value="Login to Memeify via Token-based Authentication" style="text;html=1;align=center;verticalAlign=middle;resizable=0;points=[];autosize=1;strokeColor=none;" vertex="1" parent="80">
                    <mxGeometry x="40" y="40" width="280" height="20" as="geometry"/>
                </mxCell>
                <mxCell id="84" value="Logout of Memeify" style="text;html=1;align=center;verticalAlign=middle;resizable=0;points=[];autosize=1;strokeColor=none;" vertex="1" parent="80">
                    <mxGeometry x="125" y="60" width="110" height="20" as="geometry"/>
                </mxCell>
                <mxCell id="85" value="Signup for Memeify and receive a secure Token" style="text;html=1;align=center;verticalAlign=middle;resizable=0;points=[];autosize=1;strokeColor=none;" vertex="1" parent="80">
                    <mxGeometry x="45" y="80" width="270" height="20" as="geometry"/>
                </mxCell>
                <mxCell id="90" value="View all posts by other users and myself" style="text;html=1;align=center;verticalAlign=middle;resizable=0;points=[];autosize=1;strokeColor=none;" vertex="1" parent="80">
                    <mxGeometry x="65" y="100" width="230" height="20" as="geometry"/>
                </mxCell>
                <mxCell id="91" value="Like a post by clicking a corresponding button" style="text;html=1;align=center;verticalAlign=middle;resizable=0;points=[];autosize=1;strokeColor=none;" vertex="1" parent="80">
                    <mxGeometry x="50" y="120" width="260" height="20" as="geometry"/>
                </mxCell>
                <mxCell id="106" value="Dislike a post by clicking a corresponding button" style="text;html=1;align=center;verticalAlign=middle;resizable=0;points=[];autosize=1;strokeColor=none;" vertex="1" parent="80">
                    <mxGeometry x="45" y="140" width="270" height="20" as="geometry"/>
                </mxCell>
                <mxCell id="107" value="View a post's comments by pressing a button" style="text;html=1;align=center;verticalAlign=middle;resizable=0;points=[];autosize=1;strokeColor=none;" vertex="1" parent="80">
                    <mxGeometry x="50" y="160" width="260" height="20" as="geometry"/>
                </mxCell>
                <mxCell id="110" value="Delete a comment on a post page" style="text;html=1;align=center;verticalAlign=middle;resizable=0;points=[];autosize=1;strokeColor=none;" vertex="1" parent="80">
                    <mxGeometry x="80" y="220" width="200" height="20" as="geometry"/>
                </mxCell>
                <mxCell id="129" value="See a post's net like-dislike score" style="text;html=1;align=center;verticalAlign=middle;resizable=0;points=[];autosize=1;strokeColor=none;" vertex="1" parent="80">
                    <mxGeometry x="85" y="240" width="190" height="20" as="geometry"/>
                </mxCell>
                <mxCell id="130" value="Upload meme image to MongoDB storage" style="text;html=1;align=center;verticalAlign=middle;resizable=0;points=[];autosize=1;strokeColor=none;" vertex="1" parent="80">
                    <mxGeometry x="60" y="260" width="240" height="20" as="geometry"/>
                </mxCell>
                <mxCell id="131" value="Create/Delete posts with meme" style="text;html=1;align=center;verticalAlign=middle;resizable=0;points=[];autosize=1;strokeColor=none;" vertex="1" parent="80">
                    <mxGeometry x="90" y="280" width="180" height="20" as="geometry"/>
                </mxCell>
                <mxCell id="108" value="Create a comment on a post page" style="text;html=1;align=center;verticalAlign=middle;resizable=0;points=[];autosize=1;strokeColor=none;" vertex="1" parent="1">
                    <mxGeometry x="120" y="-220" width="200" height="20" as="geometry"/>
                </mxCell>
                <mxCell id="109" value="Edit a comment on a post page" style="text;html=1;align=center;verticalAlign=middle;resizable=0;points=[];autosize=1;strokeColor=none;" vertex="1" parent="1">
                    <mxGeometry x="130" y="-200" width="180" height="20" as="geometry"/>
                </mxCell>
                <mxCell id="120" value="ICEBOX Features" style="swimlane;startSize=30;" vertex="1" parent="1">
                    <mxGeometry x="480" y="-280" width="280" height="200" as="geometry"/>
                </mxCell>
                <mxCell id="121" value="Live chat with users" style="text;html=1;align=center;verticalAlign=middle;resizable=0;points=[];autosize=1;strokeColor=none;" vertex="1" parent="120">
                    <mxGeometry x="80" y="40" width="120" height="20" as="geometry"/>
                </mxCell>
                <mxCell id="122" value="View personal user profile page" style="text;html=1;align=center;verticalAlign=middle;resizable=0;points=[];autosize=1;strokeColor=none;" vertex="1" parent="120">
                    <mxGeometry x="50" y="60" width="180" height="20" as="geometry"/>
                </mxCell>
                <mxCell id="123" value="List a favorite Meme" style="text;html=1;align=center;verticalAlign=middle;resizable=0;points=[];autosize=1;strokeColor=none;" vertex="1" parent="120">
                    <mxGeometry x="80" y="80" width="120" height="20" as="geometry"/>
                </mxCell>
                <mxCell id="124" value="Like and dislike comments" style="text;html=1;align=center;verticalAlign=middle;resizable=0;points=[];autosize=1;strokeColor=none;" vertex="1" parent="120">
                    <mxGeometry x="60" y="100" width="160" height="20" as="geometry"/>
                </mxCell>
                <mxCell id="125" value="View a comment's net like-dislike score" style="text;html=1;align=center;verticalAlign=middle;resizable=0;points=[];autosize=1;strokeColor=none;" vertex="1" parent="120">
                    <mxGeometry x="30" y="120" width="220" height="20" as="geometry"/>
                </mxCell>
                <mxCell id="126" value="Edit posts" style="text;html=1;align=center;verticalAlign=middle;resizable=0;points=[];autosize=1;strokeColor=none;" vertex="1" parent="120">
                    <mxGeometry x="105" y="140" width="70" height="20" as="geometry"/>
                </mxCell>
                <mxCell id="127" value="Moderation flag on comments for abuse" style="text;html=1;align=center;verticalAlign=middle;resizable=0;points=[];autosize=1;strokeColor=none;" vertex="1" parent="120">
                    <mxGeometry x="25" y="160" width="230" height="20" as="geometry"/>
                </mxCell>
                <mxCell id="132" value="caption: String," style="text;html=1;align=center;verticalAlign=middle;resizable=0;points=[];autosize=1;strokeColor=none;" vertex="1" parent="1">
                    <mxGeometry x="430" y="-580" width="100" height="20" as="geometry"/>
                </mxCell>
                <mxCell id="133" value="author: { ref: &quot;User&quot; }" style="text;html=1;align=center;verticalAlign=middle;resizable=0;points=[];autosize=1;strokeColor=none;" vertex="1" parent="1">
                    <mxGeometry x="415" y="-560" width="130" height="20" as="geometry"/>
                </mxCell>
                <mxCell id="137" value="meme: { ref: &quot;Meme&quot; }" style="text;html=1;align=center;verticalAlign=middle;resizable=0;points=[];autosize=1;strokeColor=none;" vertex="1" parent="1">
                    <mxGeometry x="95" y="-740" width="130" height="20" as="geometry"/>
                </mxCell>
                <mxCell id="152" value="comments: { ref &quot;Comments&quot; }" style="text;html=1;align=center;verticalAlign=middle;resizable=0;points=[];autosize=1;strokeColor=none;" vertex="1" parent="1">
                    <mxGeometry x="580" y="-750" width="180" height="20" as="geometry"/>
                </mxCell>
            </root>
        </mxGraphModel>
    </diagram>
</mxfile>